<?xml version="1.0" encoding="utf-8"?>
<!-- Designed by Vexels.com - 2016 All Rights Reserved - https://vexels.com/terms-and-conditions/  -->

<svg version="1.0" id="Capa_1" xmlns="http://www.w3.org/2000/svg" xmlns:xlink="http://www.w3.org/1999/xlink" x="0px" y="0px"
	 width="1200px" height="1199.999px" viewBox="0 0 1200 1199.999" enable-background="new 0 0 1200 1199.999" xml:space="preserve">
<path fill="#00173F" d="M1163.907,869.462c-36.511-7.372-74.949-14.442-115.392-20.955v-62.576h-21.565v28.764h-28.513v-1.42
	l-1.601-1.307h-13.164V762.45h-11.732v-34.302h-6.224V582.48c0-1.296-2.612-1.586-2.612-1.586v-31.994
	c-1.16-1.591-4.046-1.006-4.046-1.006v-25.487h-0.884v-1.449h-3.905v-4.781h-1v-1.301h-5.23v-1.456l-3.319-8.389v-3.911h-0.87
	v-1.882h-0.87v-1.153h-1.159v-34.178l-1.301-2.171v-27.067h-2.03l-0.721-1.301v-34.326h-4.49v34.326l-0.435,1.301h-2.165v27.357
	l-1.304,2.023v34.462h-1.16v1.16h-0.731v2.314h-0.731v3.473l-3.322,5.945v2.017h-1.441v1.444h-4.058v1.456h-0.725v4.626h-2.893
	v0.876h-2.032v26.06c-4.493,0.154-4.346,1.296-4.346,1.296v31.131c-2.171,0.296-2.458,2.035-2.458,2.035V728.29h-6.36v34.16h-11.448
	v21.086h-9.342v-31.161h-16.79v38.355h-11.309V574.031h-7.535v17.761h-3.227v-6.999h-2.683v-10.762h-19.919l-0.545-72.656
	l-2.683,72.656H792.11v16.14h-3.233v-17.76h-3.771v165.582h-17.051v43.141h-8.418c-0.905-22.446-3.073-80.851-1.313-81.419
	c2.171-0.722,2.381-3.106,2.381-3.106l-6.405-56.653c0,0-0.095-7.218-8.176-7.461c-8.093-0.248-9.673,8.709-9.673,8.709
	s-15.63,55.653-16.054,57.417c-0.417,1.757,2.171,3.348,2.171,3.348l-0.405,10.519l-1.221,3.698l0.583,1.083l0.088,1.296
	l-0.961,2.804l0.494,0.763l-2.298,35.042h-8.076l-0.21-7.661l-13.498-1.308l-0.571-5.188l-11.492-1.302l-3.733-42.537l1.154-2.598
	c0,0-2.574-26.617-1.441-27.918c1.156-1.307-0.852-5.2-0.269-7.797c0.556-2.585,1.71-8.761,1.71-8.761
	c2.008-0.645,3.449-3.236,3.449-3.236c0.571-3.579-2.008-21.109-2.008-21.109c2.008-10.069-3.15-34.415-3.15-34.415
	c2.292-2.277,4.008-14.619,4.008-14.619l2.875-0.319l9.188-15.914c6.883-3.899,15.509-16.234,15.509-16.234
	c2.009-0.977,4.301-4.864,4.301-4.864c0.577-1.295-2.011-7.803-2.011-7.803l2.588-5.514l-1.435-4.224l1.716-1.295l-0.858-3.248
	l-28.711-9.419l-0.858,4.55l-3.446-0.651l-6.901,11.04c-1.139-4.869-8.324-8.117-8.324-8.117c0.864-5.2-2.58-10.72-3.721-16.234
	c-1.157-5.52-2.311-11.69-3.168-13.636c-0.858-1.953-2.298-2.917-3.446-4.55c-1.145-1.609-4.307-3.568-4.307-3.568
	c-0.935-1.059-2.032-1.893-3.183-2.526l-3.133-15.98c0,0,1.142-0.976,1.725-2.922c0.574-1.946-1.435-10.069-2.292-12.016
	c-0.873-1.94,0-4.212,0-4.212c0.568,1.627,2.866-0.337,2.866-0.337l-0.858-5.839l0.571-2.272l20.668-2.917l-19.816-1.621
	l-0.565-5.526l21.254-13.306l-21.54,9.732c0-1.615-2.58-6.159-2.58-6.159l11.767-23.062l-15.219,20.133
	c-0.87-1.947-6.614-3.574-6.614-3.574v-25.315l-4.579,25.315c-2.008-0.657-6.599,1.941-6.599,1.941l-11.495-20.772l7.46,23.375
	c-2.869,1.296-5.162,6.171-5.162,6.171l-0.858-0.982l-9.155-2.515c-0.527-1.319-0.903-2.343-0.903-2.343
	c0-6.176-1.429-28.575-2.582-33.776c-1.139-5.188,0-26.297,0-26.297c-0.858-15.583-5.73-19.807-5.73-19.807l0.269-3.248
	c2.594-1.946,1.722-4.206,1.722-4.206c10.918-4.881,4.893-10.732,4.893-10.732l-0.29-4.863c-1.144-2.922-5.455-3.568-5.455-3.568
	c2.298-2.597,0-6.502-1.44-9.419c-1.426-2.928-3.151-3.573-3.151-3.573c-0.302-3.899-3.733-3.574-3.733-3.574
	c0.571,0.988-1.441,2.272-1.441,2.272c-0.577-1.946-3.449-1.284-3.449-1.284c-1.148,1.284-0.278,5.177-0.278,5.177
	c-1.432-1.627-3.443,1.633-3.443,1.633c2.012-0.977,2.573,1.621,1.42,3.567c-1.15,1.947,1.441,5.52,1.441,5.52
	c-1.441,0-4.02,2.603-4.02,2.603l-0.571,4.87c-6.313,4.532,2.869,9.744,2.869,9.744c-2.869,1.94,1.435,8.117,1.435,8.117
	c-2.573,1.29-0.275,5.514-0.275,5.514c-1.441,0.651,1.145,4.538,1.145,4.538c-3.443,2.272,3.15,12.992,3.15,12.992
	c-4.02,1.302,0.858,11.365,0.858,11.365c-1.722,2.272,0.583,5.188,0.583,5.188c-3.168,20.79-1.15,32.8-0.293,36.373
	c0.869,3.574,0.863,15.258,0.863,15.258c-4.02,3.248-10.046,15.914-10.046,15.914c-4.023,9.413,1.151,19.802,3.162,20.778
	c2,0.971,0,2.272,0,2.272s-0.864,2.272-0.583,3.893c0.281,1.627,0.281,2.278-1.139,5.2c-1.441,2.911,0.571,4.212,0.858,7.141
	c0.281,2.929,4.304,3.905,5.443,6.502c1.15,2.591-1.435,1.609-2.281,3.562c-0.869,1.946,1.423,4.224,0.846,5.52
	c-0.565,1.301-0.275,0.976,0.863,1.301c1.154,0.325,0.571,1.296-0.568,3.242c-1.142,1.94-2.301,2.929-3.44,4.875
	c-1.15,1.94,2,2.272,2.87,3.254c0.852,0.958,0,0,0,1.621c0,1.609,2.002,4.212,2.86,5.182c0.867,0.977,1.731,0,2.314,1.627
	c0.562,1.627,3.437,13.312,3.437,13.312c-3.739,3.898-10.628,28.901-10.628,28.901c-1.154,9.744,11.776,7.472,11.776,7.472
	c-2.006,2.272-0.571,9.744-0.571,9.744c-4.014,3.887-6.038,15.577-6.038,15.577c-1.441,4.224,3.162,8.443,3.162,8.443
	c-2.011,3.899,0.571,18.831,1.139,23.375c0.583,4.55,1.441,14.607,0.583,19.151c-0.858,4.55-3.443,11.046-3.443,11.046
	c-3.453,5.52,0.852,7.141,0.852,7.141c-9.176,20.778-7.461,48.388-7.736,49.353c-0.287,0.976-0.577,2.597-0.577,2.597l-0.864,5.2
	c-3.458,6.49,0,9.738,0,9.738c-1.727,0.651-1.435,9.087-1.435,9.087l-3.446,7.791l-8.611-0.319l-18.677,40.26v4.603h-8.466v-24.138
	h-2.683v-38.935h-5.363v-33.124h-9.401v-14.767l-4.481-6.703c-0.891-7.614-7.602-7.614-7.602-7.614
	c-4.916,1.343-6.268,7.614-6.268,7.614l-4.026,5.816v16.547h-11.188v53.358h-19.219v-62.942l-4.759-25.469v-106.16l-8.493,15.702
	l-8.025,3.13v-77.668h-0.935v-16.281h-1.038v16.4l-4.077,80.697l-21.387,10.111l-15.237-3.147V679.41l-4.535,30.462v74.467
	l-0.991,0.994h-44.348v6.857h-1.87v15.317h-4.724v-91.091h-9.587v95.883h-8.632v-46.974h-7.378V734.39
	c-0.281-2.887-3.461-2.887-3.461-2.887V720.64h-3.609v-11.844h1.87v-5.78h-5.632V574.179h2.162v-2.751h-5.49v-35.13h-2.461v-2.467
	h-1.585v-7.23h-0.58v-1.733h-0.872v-8.673h-1.148v-1.591h-0.872c0,0,0-5.929,0-7.946c0-2.029-2.748-2.029-2.748-2.029v-8.673h-1.591
	v-3.041h-0.728v-7.525h-1.012v-2.597h-0.861v-10.123h-0.878v-11.998h-1v-24.445h-1.31V426.12h-0.858v10.105h-0.731v24.445h-1.012
	v12.14h-0.867v9.981h-0.86v2.745h-1.018v7.519h-0.864v2.615h-1.73v8.957c-2.168,0-2.899,1.585-2.899,1.585v8.383h-0.86v1.159h-0.879
	v8.969h-0.722v1.727h-1.009v6.804h-1.879v3.041h-2.902v35.273h-6.357v2.609h2.458v129.115h-5.209v5.627h2.03v11.43h-3.908v10.85
	c-3.171,0.154-3.508,2.455-3.508,2.455v31.924h-7.528v46.72h-11.756v-50.341h-11.989v52.737h-21.567v-19.168h-19.18v33.556h-57.535
	v26.706c-31.113,6.248-62.593,13.318-94.298,20.919v35.166h1127.814V869.462z M613.516,439.769
	c-0.864-0.337-1.722-3.579-2.009-5.526c-0.231-1.467,1.189-2.561,1.408-3.573c0.142,3.011,1.461,7.46,1.461,7.46
	S614.376,440.089,613.516,439.769z M613.516,425.15l-2.047-0.858c-0.609-1.787-1.973-4.17-2.837-5.638
	c-0.269-0.456-0.589-1.124-0.917-1.863l7.532,2.833C613.794,420.606,613.516,425.15,613.516,425.15z M641.664,473.846
	c-1.742-2.597-0.869-12.01-0.869-12.01c-0.583,6.165,3.15,6.496,3.15,6.496l1.37,5.958
	C643.209,473.846,641.664,473.846,641.664,473.846z"/>
</svg>
